# xmcd
#
# Track frame offsets: 
#        150
#        12080
#        24057
#        41473
#        57067
#        75673
#        94166
#        110279
#        124951
#        141024
#        155808
#        177886
#        195593
#        214980
#        220840
#
# Disc length: 3144 seconds
#
# Revision: 0
# Processed by: cddbd v1.4PL0 Copyright (c) Steve Scherf et al.
# Submitted via: ExactAudioCopy v0.95a3
#
DISCID=c30c460f
DTITLE=Pyjamas Sauvages - Pyjamas Sauvages
DYEAR=1996
DGENRE=Blues
TTITLE0=The Spider And The Fly
TTITLE1=Let The Four Winds Blow
TTITLE2=Detroit City
TTITLE3=Rock Me Baby
TTITLE4=Shame Shame Shame
TTITLE5=My Girl Josephine
TTITLE6=Worried Life Blues
TTITLE7=Shoo Fly Pie
TTITLE8=Ball Room Blues
TTITLE9=I'm A King Bee
TTITLE10=Blues Oh Blues
TTITLE11=Baby What You Want Me To Do
TTITLE12=G Spot Blues
TTITLE13=Mercedes Benz
TTITLE14=It's All Over Now Baby Blue
EXTD=
EXTT0=
EXTT1=
EXTT2=
EXTT3=
EXTT4=
EXTT5=
EXTT6=
EXTT7=
EXTT8=
EXTT9=
EXTT10=
EXTT11=
EXTT12=
EXTT13=
EXTT14=
PLAYORDER=
